<svg id="Layer_1" data-name="Layer 1" xmlns="http://www.w3.org/2000/svg" viewBox="0 0 329.98 99.71"><defs><style>.cls-1{fill:#e1251b;}</style></defs><polygon class="cls-1" points="147.54 79.35 180.4 79.35 180.4 70.9 156.97 70.9 156.97 61.84 177.32 61.84 177.32 53.4 156.97 53.4 156.97 44.64 180.09 44.64 180.09 36.19 147.54 36.19 147.54 79.35 147.54 79.35"/><polygon class="cls-1" points="190.08 79.35 199.39 79.35 199.39 51.36 211.66 69.8 223.81 51.17 223.81 79.35 233.24 79.35 233.24 36.19 223 36.19 211.66 54.44 200.32 36.19 190.08 36.19 190.08 79.35 190.08 79.35"/><path class="cls-1" d="M263.21,80.09c8.32,0,13.25-3,17.69-7.7l-6-6.11c-3.39,3.08-6.42,5.06-11.35,5.06-7.39,0-12.51-6.17-12.51-13.57v-.12c0-7.4,5.24-13.44,12.51-13.44,4.32,0,7.71,1.85,11,4.87l6-7c-4-3.94-8.88-6.66-17-6.66-13.25,0-22.5,10-22.5,22.32v.12a21.79,21.79,0,0,0,22.14,22.2"/><path class="cls-1" d="M307,80.09c13.32,0,23-10,23-22.32v-.12c0-12.27-9.56-22.2-22.88-22.2s-23,10-23,22.32v.12c0,12.27,9.55,22.2,22.87,22.2m.12-8.75c-7.64,0-13.07-6.17-13.07-13.57v-.12c0-7.4,5.3-13.44,13-13.44s13.07,6.16,13.07,13.56v.12c0,7.4-5.3,13.45-12.95,13.45"/><polygon points="14.84 75.38 25.27 75.38 25.27 29.54 17.92 29.54 17.92 29.54 4.22 29.54 4.22 39.98 14.84 39.98 14.84 75.38"/><rect y="82.97" width="39.21" height="10.44"/><polygon points="111.2 32.9 88.91 45.75 111.2 58.73 111.2 32.9"/><polygon points="94.99 61.06 94.96 86.86 117.29 73.88 94.99 61.06"/><polygon points="62.45 86.81 84.84 99.71 84.84 73.97 62.45 86.81"/><polygon points="46.11 58.62 46.1 84.42 68.43 71.42 46.11 58.62"/><polygon points="62.5 30.34 40.2 43.17 62.48 56.17 62.5 30.34"/><polygon points="95 30.51 72.61 17.62 72.62 43.35 95 30.51"/><path d="M11,9.75v-6h5.37V16.51h3.48V.42H7.5V9.59c0,2.93-1,4-3,3.67v3.25C8.66,16.89,11,14.87,11,9.75Z"/><path d="M33.17,13.74A5.13,5.13,0,0,1,28,9.94c-.06-.24-.1-.47-.14-.68h13s0-.41,0-.76a9.38,9.38,0,0,0-.21-2s0-.07,0-.09h0a8.39,8.39,0,0,0-2-3.92A7.56,7.56,0,0,0,32.88,0a8.07,8.07,0,0,0-6.11,2.45,8.22,8.22,0,0,0-2.39,6,8.26,8.26,0,0,0,2.42,6.09,8.72,8.72,0,0,0,6.34,2.38,7.93,7.93,0,0,0,7-3.51l-2.86-1.67A4.78,4.78,0,0,1,33.17,13.74ZM32.85,3.15A4.42,4.42,0,0,1,37.27,6.4l-9.09,0A4.64,4.64,0,0,1,32.85,3.15Z"/><polygon points="48.95 16.51 52.43 16.51 52.43 3.77 57.67 3.77 57.67 0.42 43.67 0.42 43.67 3.77 48.95 3.77 48.95 16.51"/></svg>
